# xmcd CD database file
#
# Track frame offsets:
#	150
#	14893
#	34850
#	52390
#	83572
#	96229
#	117241
#	131034
#	153894
#	165241
#	180089
#	197261
#
# Disc length: 2976 seconds
#
# Revision: 0
# Processed by: cddbd v1.5.2PL0 Copyright (c) Steve Scherf et al.
# Submitted via: CDex 1.70beta2
#
DISCID=910b9e0c
DTITLE=DEVIL TO PAY - FATE IS YOUR MUSE (2013 ALBUM)
DYEAR=2013
DGENRE=Sludge Metal
TTITLE0=PREPARE TO DIE
TTITLE1=WEARIN' YOU DOWN
TTITLE2=TEN LIZARDMEN AND ONE POCKETKNIFE
TTITLE3=YES MASTER
TTITLE4=ALREADY DEAD
TTITLE5=THIS TRAIN WON'T STOP
TTITLE6=SAVONAROLA
TTITLE7=BLACK BLACK HEART
TTITLE8=THE NAKED TRUTH
TTITLE9=MASS PSYCHOSIS
TTITLE10=TIE ONE ON
TTITLE11=BEYOND THE ETHER
EXTD=YEAR: 2013
EXTT0=
EXTT1=
EXTT2=
EXTT3=
EXTT4=
EXTT5=
EXTT6=
EXTT7=
EXTT8=
EXTT9=
EXTT10=
EXTT11=
PLAYORDER=
